<?xml version="1.0" encoding="UTF-8" standalone="no"?>
<svg xmlns="http://www.w3.org/2000/svg" width="600" height="600" viewBox="0 0 600 600">
<path transform="translate(-7,540)scale(0.2,-0.2)" d="M2142,2619c10,18,27,18,51,0c144,-56,219,-111,225,-165c0,-46,-13,-82,-39,-108c-28,-26,-48,-39,-60,-39c-12,0,-25,19,-39,57c-20,82,-63,153,-129,213c-14,14,-17,28,-9,42Z
M1182,1200c-14,-6,-22,-3,-24,9c-6,42,-19,73,-39,93c-26,24,-93,49,-201,75c-30,4,-44,16,-42,36c4,20,18,27,42,21c210,-16,331,-9,363,21c28,30,49,127,63,291h-591c-9,-78,-9,-78,-18,-150c-52,-198,-237,-387,-555,-567c-20,-16,-36,-15,-48,3c-12,22,-8,41,12,57c46,40,104,87,174,141c218,158,318,396,300,714v237c0,84,-4,153,-12,207c-6,26,-3,40,9,42c10,4,22,-4,36,-24c32,-44,70,-85,114,-123h1023c-2,6,-7,24,-15,54c-20,88,-45,174,-75,258c-2,16,-2,25,0,27c12,12,102,0,270,-36c18,-6,27,-13,27,-21c2,-14,-7,-24,-27,-30c-40,-18,-64,-34,-72,-48c-16,-32,-7,-100,27,-204h603c26,4,51,16,75,36l84,117c16,18,31,18,45,0c64,-52,121,-106,171,-162c22,-24,32,-43,30,-57c-6,-16,-21,-25,-45,-27h-945c58,-234,117,-399,177,-495c148,112,246,234,294,366c4,20,9,31,15,33c14,4,82,-45,204,-147c12,-12,17,-22,15,-30c-4,-12,-18,-14,-42,-6c-26,8,-52,5,-78,-9c-14,-6,-36,-34,-66,-84c-96,-102,-187,-187,-273,-255c120,-152,262,-247,426,-285c40,-8,67,-8,81,0c24,8,46,43,66,105c34,92,64,195,90,309c2,20,12,29,30,27c20,-2,29,-13,27,-33c-26,-258,-21,-417,15,-477c28,-44,32,-79,12,-105c-22,-26,-76,-29,-162,-9c-274,22,-501,149,-681,381c-116,-96,-285,-196,-507,-300c-46,-18,-73,-17,-81,3c-10,28,-3,48,21,60c236,126,403,243,501,351c-4,8,-7,15,-9,21c-74,148,-144,341,-210,579h-1044v-246c0,-34,-1,-69,-3,-105h495c22,2,37,7,45,15l69,96c12,20,27,20,45,0c74,-62,133,-117,177,-165c12,-14,9,-24,-9,-30c-56,-22,-87,-43,-93,-63c-22,-184,-49,-294,-81,-330c-64,-72,-139,-126,-225,-162Z
M1806,1074c-18,10,-23,25,-15,45c10,18,28,20,54,6c86,-30,154,-61,204,-93c36,-22,55,-42,57,-60c8,-48,0,-87,-24,-117c-6,-4,-10,-9,-12,-15h390c28,2,58,21,90,57l78,111c14,18,30,18,48,0c142,-126,212,-204,210,-234c-4,-16,-19,-25,-45,-27h-1161v-585c178,104,369,250,573,438c16,18,30,21,42,9c46,-42,100,-100,162,-174c16,-18,20,-31,12,-39c-8,-10,-27,-9,-57,3c-48,20,-111,2,-189,-54c-198,-126,-379,-229,-543,-309v-54c2,-24,4,-40,6,-48c4,-8,21,-12,51,-12h720c34,4,58,10,72,18c60,30,111,178,153,444c4,28,18,41,42,39c24,-4,35,-21,33,-51c-38,-238,-27,-378,33,-420c12,-12,14,-22,6,-30c-46,-78,-138,-120,-276,-126h-798c-86,0,-138,12,-156,36c-20,24,-30,61,-30,111v27c-196,-78,-400,-144,-612,-198c-30,-8,-46,-2,-48,18c-4,20,4,33,24,39c200,58,412,144,636,258v660h-240c-30,-146,-73,-274,-129,-384c-70,-132,-166,-243,-288,-333c-146,-104,-373,-199,-681,-285c-30,-6,-46,3,-48,27c-2,24,10,40,36,48c282,94,495,205,639,333c154,138,255,336,303,594h-663c-84,-2,-157,-9,-219,-21c-18,-6,-28,0,-30,18c-10,36,-30,67,-60,93c-16,14,-20,25,-12,33c8,6,19,5,33,-3c76,-18,160,-27,252,-27h717c16,110,23,211,21,303c-2,14,1,24,9,30c8,4,19,5,33,3c90,-24,171,-51,243,-81c14,-6,20,-15,18,-27c-2,-12,-21,-18,-57,-18c-28,0,-49,-9,-63,-27c-2,-2,-15,-63,-39,-183h675c-60,120,-120,198,-180,234Z"/>
</svg>