<?xml version="1.0" encoding="UTF-8" standalone="no"?>
<!-- Created with Inkscape (http://www.inkscape.org/) -->
<svg
   xmlns:dc="http://purl.org/dc/elements/1.1/"
   xmlns:cc="http://web.resource.org/cc/"
   xmlns:rdf="http://www.w3.org/1999/02/22-rdf-syntax-ns#"
   xmlns:svg="http://www.w3.org/2000/svg"
   xmlns="http://www.w3.org/2000/svg"
   xmlns:sodipodi="http://sodipodi.sourceforge.net/DTD/sodipodi-0.dtd"
   xmlns:inkscape="http://www.inkscape.org/namespaces/inkscape"
   width="250"
   height="130"
   id="svg2"
   sodipodi:version="0.32"
   inkscape:version="0.45.1"
   version="1.0"
   sodipodi:docbase="C:\Documents and Settings\Aaron\My Documents\My Pictures\Wiki Images"
   sodipodi:docname="FoundX v2.svg"
   inkscape:output_extension="org.inkscape.output.svg.inkscape">
  <defs
     id="defs4" />
  <sodipodi:namedview
     id="base"
     pagecolor="#ffffff"
     bordercolor="#666666"
     borderopacity="1.0"
     gridtolerance="10000"
     guidetolerance="10"
     objecttolerance="10"
     inkscape:pageopacity="0.0"
     inkscape:pageshadow="2"
     inkscape:zoom="1"
     inkscape:cx="102.63629"
     inkscape:cy="51.730119"
     inkscape:document-units="px"
     inkscape:current-layer="layer1"
     width="250px"
     height="130px"
     showguides="true"
     inkscape:guide-bbox="true"
     inkscape:window-width="1440"
     inkscape:window-height="844"
     inkscape:window-x="0"
     inkscape:window-y="22" />
  <metadata
     id="metadata7">
    <rdf:RDF>
      <cc:Work
         rdf:about="">
        <dc:format>image/svg+xml</dc:format>
        <dc:type
           rdf:resource="http://purl.org/dc/dcmitype/StillImage" />
      </cc:Work>
    </rdf:RDF>
  </metadata>
  <g
     inkscape:label="Layer 1"
     inkscape:groupmode="layer"
     id="layer1">
    <path
       style="fill:none;fill-opacity:0.78431373;stroke:#000000;stroke-width:0.5;stroke-linecap:square;stroke-linejoin:round;stroke-miterlimit:4;stroke-dashoffset:0;stroke-opacity:1"
       d="M 36.03236,8.9234476 L 217.19372,111.83703 L 36.03236,111.83703 L 36.03236,8.9234476 z "
       id="rect3141"
       sodipodi:nodetypes="cccc" />
    <text
       xml:space="preserve"
       style="font-size:16px;font-style:normal;font-weight:normal;fill:#000000;fill-opacity:1;stroke:none;stroke-width:1px;stroke-linecap:butt;stroke-linejoin:miter;stroke-opacity:1;font-family:Bitstream Vera Sans"
       x="23.847609"
       y="64.61657"
       id="text3144"><tspan
         sodipodi:role="line"
         id="tspan3146"
         x="23.847609"
         y="64.61657">3</tspan></text>
    <text
       xml:space="preserve"
       style="font-size:16px;font-style:normal;font-weight:normal;fill:#000000;fill-opacity:1;stroke:none;stroke-width:1px;stroke-linecap:butt;stroke-linejoin:miter;stroke-opacity:1;font-family:Bitstream Vera Sans"
       x="118.73998"
       y="125.68888"
       id="text3148"><tspan
         sodipodi:role="line"
         id="tspan3150"
         x="118.73998"
         y="125.68888">4</tspan></text>
    <text
       xml:space="preserve"
       style="font-size:16px;font-style:normal;font-weight:normal;fill:#000000;fill-opacity:1;stroke:none;stroke-width:1px;stroke-linecap:butt;stroke-linejoin:miter;stroke-opacity:1;font-family:Bitstream Vera Sans"
       x="126.86304"
       y="53.49157"
       id="text3152"><tspan
         sodipodi:role="line"
         id="tspan3154"
         x="126.86304"
         y="53.49157">x</tspan></text>
    <path
       style="fill:#ff0000;fill-opacity:1;stroke:#ff0000;stroke-width:2;stroke-linecap:square;stroke-linejoin:round;stroke-miterlimit:4;stroke-dasharray:none;stroke-dashoffset:0;stroke-opacity:1"
       d="M 139.9784,42.347755 C 137.96433,40.749471 135.49327,39.797218 132.99209,39.290692 C 130.04343,38.858242 126.94991,39.587683 124.44681,41.184625 C 122.95068,42.202261 121.70606,43.620558 120.99908,45.294494 C 120.65113,45.604111 120.77714,44.714663 120.84548,45.508174 C 121.29173,48.115826 122.09087,52.614843 123.23267,55.00097 C 124.02603,56.440076 125.60366,57.394842 127.25512,57.370595 C 129.70671,57.513246 132.16819,57.155039 134.55617,56.624014 C 135.6612,56.305472 136.88879,55.93201 137.62929,55.003074 C 139.11115,52.713955 139.22173,47.961784 139.49193,45.331799 C 139.32479,44.169081 138.51174,43.219422 138.3078,42.056805 C 137.99145,41.270557 137.52039,40.557519 137.19427,39.776867 C 138.08842,39.342781 136.46497,40.08425 137.24286,39.690393 C 137.49608,39.512131 138.22563,38.987857 137.66033,39.534292 C 138.86227,40.795564 138.96972,42.655477 139.81926,44.113561 C 140.3398,44.954422 139.90451,45.923497 139.89316,46.83132 C 139.66639,49.008468 139.32633,53.233674 138.03433,55.065191 C 135.88237,56.682387 133.20511,57.438232 130.54501,57.598197 C 128.48872,57.812337 126.23732,58.11163 124.335,57.105711 C 122.477,55.946483 121.92686,53.684391 121.24957,51.750981 C 120.78328,50.302069 120.4164,46.876279 120.16023,45.375774 C 120.50187,46.027125 120.82373,44.299008 121.22821,44.040827 C 122.77433,41.853802 125.16056,40.375728 127.65248,39.491023 C 130.46887,38.52768 133.63321,38.546023 136.3797,39.738187 C 137.86618,40.293982 139.32643,40.979749 140.57075,41.978475 C 140.3733,42.101566 140.17585,42.224665 139.9784,42.347755 z "
       id="path3188"
       sodipodi:nodetypes="cccccccccccccccccccccccccc" />
    <path
       style="fill:#ff0000;fill-opacity:1;stroke:#ff0000;stroke-width:2;stroke-linecap:square;stroke-linejoin:round;stroke-miterlimit:4;stroke-dasharray:none;stroke-dashoffset:0;stroke-opacity:1"
       id="path5132"
       d="M 164.73738,25.412508 C 162.84792,26.779479 160.91988,28.1213 158.93661,29.423073 C 155.6593,31.370736 152.3598,33.293721 149.16957,35.311239 C 147.28907,36.54835 145.52587,37.865215 143.80663,39.208912 C 143.49803,39.503554 143.11882,39.753558 142.76132,40.016978 L 141.66336,40.329687 C 142.03096,40.068708 142.42542,39.825038 142.73012,39.522826 C 144.46567,38.173069 146.24691,36.851524 148.13668,35.603884 C 151.33159,33.588202 154.62571,31.658951 157.91044,29.715395 C 159.8743,28.426316 161.78407,27.096492 163.63408,25.729237 L 164.73738,25.412508 z " />
    <path
       style="fill:#ff0000;fill-opacity:1;stroke:#ff0000;stroke-width:2;stroke-linecap:square;stroke-linejoin:round;stroke-miterlimit:4;stroke-dasharray:none;stroke-dashoffset:0;stroke-opacity:1"
       id="path5134"
       d="M 141.74952,39.953611 C 142.32611,38.678746 142.60149,37.294984 142.93584,35.943334 C 143.4205,34.088913 144.05881,32.279879 144.7355,30.488214 C 145.39427,28.79282 144.57098,30.906822 145.13591,29.469419 L 145.81868,29.42453 C 145.23798,30.86091 146.08333,28.748812 145.40704,30.442741 C 144.71747,32.228572 144.07127,34.034336 143.59522,35.890501 C 143.2643,37.242231 142.99468,38.623315 142.44834,39.90932 L 141.74952,39.953611 z " />
    <path
       style="fill:#ff0000;fill-opacity:1;stroke:#ff0000;stroke-width:2;stroke-linecap:square;stroke-linejoin:round;stroke-miterlimit:4;stroke-dasharray:none;stroke-dashoffset:0;stroke-opacity:1"
       id="path5136"
       d="M 142.12363,40.072956 C 143.89265,39.736587 145.6486,40.114493 147.3932,40.419338 C 148.73202,40.666112 150.05813,40.976052 151.36995,41.338972 L 150.7102,41.512325 C 149.4083,41.146752 148.09165,40.834704 146.76093,40.592248 C 145.5174,40.378092 143.54556,40.075148 142.82305,40.072118 L 142.12363,40.072956 z " />
    <path
       style="font-size:12px;font-style:normal;font-weight:normal;fill:#ff0000;fill-opacity:1;stroke:none;stroke-width:1px;stroke-linecap:butt;stroke-linejoin:miter;stroke-opacity:1;font-family:Croobie"
       d="M 168.79851,10.675836 C 168.06137,10.675845 167.6928,10.899605 167.69282,11.347117 C 167.6928,12.120784 167.80154,13.26624 168.01905,14.783489 C 168.23652,16.300745 168.34526,17.440113 168.34528,18.201598 C 168.34526,18.552089 168.30911,18.787839 168.23681,18.90885 C 168.12797,19.066017 167.91029,19.144601 167.58378,19.144601 C 165.8911,19.144601 165.04475,18.624769 165.04477,17.585105 C 165.04475,16.956437 165.32284,16.086023 165.87902,14.97386 C 166.43519,13.861705 166.71328,12.991291 166.71328,12.362616 C 166.71328,11.39527 165.93353,10.911594 164.37404,10.911587 C 164.2047,10.911594 163.9659,10.917683 163.65765,10.929849 C 163.34941,10.942032 163.14087,10.948119 163.03203,10.948112 C 162.1012,10.948119 161.63579,10.198626 161.63579,8.6996261 C 161.63579,8.3247961 161.70828,7.9499561 161.85328,7.5751051 C 162.04696,7.0914421 162.28881,6.8496041 162.57879,6.8495921 C 162.86877,6.8496041 163.26159,6.9795611 163.75727,7.2394651 C 164.25293,7.4993931 164.64594,7.6293501 164.9363,7.6293401 C 165.50445,7.6293501 166.34461,7.4993931 167.45679,7.2394651 C 168.56893,6.9795611 169.41518,6.8496041 169.99553,6.8495921 C 170.66034,6.8496041 171.27683,7.0551011 171.84502,7.4660851 C 172.46186,7.9136171 172.77029,8.4637011 172.7703,9.1163411 C 172.77029,10.228693 172.06894,10.784865 170.66626,10.784857 C 170.43678,10.784865 170.11044,10.766695 169.68728,10.730347 C 169.26411,10.694015 168.96785,10.675845 168.79851,10.675836 L 168.79851,10.675836 z M 182.92972,18.78212 L 182.34975,19.090367 C 181.24958,19.090367 180.6995,18.13519 180.6995,16.224833 C 180.6995,15.934852 180.73574,15.496647 180.80824,14.910218 C 180.88073,14.323798 180.91698,13.885593 180.91698,13.595604 C 180.91698,12.87028 180.71757,12.277951 180.31876,11.818619 C 179.76239,11.770295 179.38755,11.74613 179.19424,11.746122 C 178.21506,11.74613 177.33866,11.99387 176.56501,12.489345 C 175.67034,13.069689 175.223,13.819185 175.223,14.737832 C 175.223,15.088696 175.30462,15.599581 175.46789,16.270488 C 175.63114,16.941404 175.71276,17.446017 175.71276,17.784329 C 175.71276,18.425174 175.43458,18.878598 174.87823,19.144601 C 174.09239,18.926928 173.57864,18.394922 173.33699,17.54858 C 173.20417,17.10143 173.13776,16.31578 173.13776,15.191625 C 173.13776,14.212102 173.02892,13.486588 172.81126,13.015082 C 173.27057,12.616267 173.50024,12.150853 173.50024,11.618838 C 173.50024,11.099015 173.2645,10.370642 172.793,9.4337191 C 172.32149,8.4968121 172.08575,7.7926061 172.08575,7.3210921 C 172.08575,6.7772911 172.53917,6.4387921 173.44601,6.3055931 C 173.72382,6.4749481 174.11674,7.1399561 174.62476,8.3006211 C 175.07191,9.3402941 175.47074,9.8601261 175.82123,9.8601171 C 175.95441,9.8601261 176.3655,9.7029591 177.05449,9.3886151 C 177.74348,9.0742911 178.32372,8.9171241 178.79523,8.9171151 C 180.4274,8.9171241 181.57894,9.2314581 182.24986,9.8601171 C 182.92076,10.488793 183.25622,11.61903 183.25624,13.250831 C 183.25622,13.831175 183.19572,14.750012 183.07472,16.007344 C 182.95407,17.216353 182.90572,18.141277 182.92972,18.78212 L 182.92972,18.78212 z M 191.02715,10.295094 C 191.02714,11.552438 190.33188,12.610364 188.94137,13.468874 C 187.72056,14.230364 186.44513,14.611107 185.11512,14.611103 L 184.73439,15.1551 C 184.74655,15.481613 184.92789,15.747616 185.27838,15.95311 C 185.59271,16.122456 185.91922,16.207127 186.2579,16.207124 C 186.7294,16.207127 187.27949,15.980416 187.90815,15.526989 C 188.53683,15.073569 188.98397,14.834683 189.24961,14.810329 L 189.73938,15.191625 C 189.75155,15.433283 189.90576,15.738485 190.20203,16.107234 C 190.49828,16.47599 190.6464,16.78728 190.64642,17.041106 C 190.6464,17.25878 190.53757,17.482356 190.3199,17.711834 C 189.8484,17.724009 189.21069,17.965847 188.40678,18.437348 C 187.60287,18.90885 186.95906,19.144601 186.47539,19.144601 C 185.33906,19.144601 184.43848,18.437349 183.77366,17.022844 C 183.24166,15.898696 182.97566,14.695778 182.97566,13.414087 C 182.97566,12.483264 183.7221,11.168559 185.21501,9.4699661 C 186.70791,7.7713911 187.90779,6.9220991 188.81464,6.9220871 C 189.62482,6.9220991 190.21714,7.3030261 190.59162,8.0648701 C 190.88198,8.6452181 191.02714,9.3886261 191.02715,10.295094 L 191.02715,10.295094 z M 187.90815,11.111366 C 187.30347,11.111373 186.77145,11.2322 186.31213,11.473846 C 185.74397,11.776013 185.47206,12.193096 185.49642,12.725096 L 185.49642,12.924876 C 185.68975,13.057699 185.91331,13.124108 186.16715,13.124102 C 186.57814,13.124108 186.98914,12.96694 187.40013,12.6526 C 187.81112,12.338273 188.01662,11.981695 188.01662,11.582868 C 188.01662,11.413533 187.98046,11.256365 187.90815,11.111366 L 187.90815,11.111366 z M 200.38525,9.9868461 C 200.38523,10.4222 200.32472,10.863449 200.20372,11.310592 C 200.02257,11.939267 199.77483,12.253602 199.4605,12.253594 C 199.20666,12.253602 198.79567,12.132683 198.22751,11.890837 C 197.65934,11.649007 197.20592,11.528088 196.86724,11.528081 C 196.15409,11.528088 195.30183,11.745761 194.31051,12.181099 C 193.66965,13.075778 193.32508,13.565356 193.27675,13.649838 C 192.92625,14.242355 192.75102,14.810518 192.75102,15.354326 C 192.75102,15.644683 192.86583,16.058815 193.0955,16.596722 C 193.32517,17.134634 193.44,17.548766 193.44,17.839117 C 193.44,18.854433 192.87792,19.344011 191.75377,19.307855 C 190.94359,17.990014 190.5385,16.164515 190.5385,13.831355 C 190.5385,12.719015 190.93141,11.522185 191.71724,10.24086 C 192.53924,8.8990471 193.45199,8.0527051 194.45551,7.7018351 C 195.38632,7.3875121 196.49257,7.2303461 197.77427,7.2303341 C 198.62023,7.2303461 199.26689,7.4752281 199.71424,7.9649801 C 200.16156,8.4547541 200.38523,9.1287101 200.38525,9.9868461 L 200.38525,9.9868461 z M 207.81526,10.295094 C 207.81526,11.552438 207.12,12.610364 205.72948,13.468874 C 204.50866,14.230364 203.23325,14.611107 201.90323,14.611103 L 201.52249,15.1551 C 201.53467,15.481613 201.71599,15.747616 202.06649,15.95311 C 202.38082,16.122456 202.70733,16.207127 203.04602,16.207124 C 203.51752,16.207127 204.0676,15.980416 204.69627,15.526989 C 205.32493,15.073569 205.77208,14.834683 206.03773,14.810329 L 206.52749,15.191625 C 206.53965,15.433283 206.69387,15.738485 206.99013,16.107234 C 207.28638,16.47599 207.43452,16.78728 207.43452,17.041106 C 207.43452,17.25878 207.32567,17.482356 207.10802,17.711834 C 206.6365,17.724009 205.99879,17.965847 205.19489,18.437348 C 204.39097,18.90885 203.74718,19.144601 203.2635,19.144601 C 202.12717,19.144601 201.2266,18.437349 200.56178,17.022844 C 200.02977,15.898696 199.76376,14.695778 199.76376,13.414087 C 199.76376,12.483264 200.51022,11.168559 202.00312,9.4699661 C 203.49603,7.7713911 204.69589,6.9220991 205.60274,6.9220871 C 206.41292,6.9220991 207.00526,7.3030261 207.37974,8.0648701 C 207.67008,8.6452181 207.81526,9.3886261 207.81526,10.295094 L 207.81526,10.295094 z M 204.69627,11.111366 C 204.09158,11.111373 203.55957,11.2322 203.10025,11.473846 C 202.53208,11.776013 202.26018,12.193096 202.28452,12.725096 L 202.28452,12.924876 C 202.47785,13.057699 202.70143,13.124108 202.95526,13.124102 C 203.36625,13.124108 203.77724,12.96694 204.18825,12.6526 C 204.59924,12.338273 204.80473,11.981695 204.80474,11.582868 C 204.80473,11.413533 204.76858,11.256365 204.69627,11.111366 L 204.69627,11.111366 z M 217.34546,7.5751051 C 216.49911,9.1346121 215.06045,9.9143601 213.02944,9.9143511 C 211.8448,8.4876821 211.25246,7.2908521 211.25246,6.3238551 C 211.25246,5.7195511 211.43988,5.1089594 211.81472,4.4920833 C 212.2497,4.371456 212.67878,4.3111347 213.10195,4.3111196 C 214.79462,4.3111347 216.20913,5.3991291 217.34546,7.5751051 L 217.34546,7.5751051 z M 215.60444,11.238095 C 215.6406,11.963434 215.65868,12.465186 215.65868,12.743359 C 215.65868,13.384208 215.60435,14.348332 215.4957,15.635734 C 215.38704,16.923141 215.33272,17.887265 215.33272,18.528107 C 215.33272,18.733606 215.19668,18.90885 214.92458,19.053842 C 214.6525,19.198835 214.40761,19.27133 214.18994,19.27133 C 214.18994,19.27133 214.09328,19.259341 213.89995,19.23536 C 212.9813,18.231852 212.52198,17.041109 212.52198,15.663127 C 212.52198,14.937431 212.63672,14.05475 212.86619,13.015082 C 213.2532,11.298424 213.44672,10.422016 213.44672,10.385851 C 214.32921,10.38586 215.04845,10.669941 215.60444,11.238095 L 215.60444,11.238095 z M 225.48052,18.165627 C 225.48052,18.479593 225.34152,18.745411 225.06352,18.963084 C 224.78553,19.180757 224.48937,19.289593 224.17503,19.289593 C 221.93854,19.289593 220.19162,18.763674 218.93428,17.711834 C 217.60464,16.587685 216.93981,14.925442 216.93981,12.725096 C 216.93981,10.476434 218.14273,7.9436851 220.54857,5.1268395 C 220.8024,5.0545423 221.05623,5.0183861 221.31006,5.0183725 C 222.27704,5.0183861 222.99019,5.3749641 223.44952,6.0881041 C 223.36503,6.5596181 223.09313,7.1519471 222.6338,7.8650911 C 222.2228,8.4937691 221.81181,9.0016111 221.40082,9.3886151 C 222.96031,9.6424531 224.12689,10.307277 224.90055,11.383089 C 224.74338,11.745761 224.5923,12.108426 224.44732,12.471083 C 224.19347,13.027446 223.98189,13.305624 223.81255,13.305618 C 223.30489,13.305624 222.65814,13.003373 221.87232,12.398864 C 221.08648,11.794368 221.05827,11.845669 220.55025,11.845662 C 220.24808,11.845669 220.00643,12.166091 219.82528,12.806928 C 219.67992,13.302415 219.60724,13.755655 219.60724,14.166645 C 219.60724,15.3395 219.55078,15.723451 220.67529,16.025607 C 221.71496,16.158428 222.75463,16.291429 223.7943,16.424612 C 224.91844,16.642288 225.48052,17.222626 225.48052,18.165627 L 225.48052,18.165627 z M 201.26571,30.242595 C 200.41937,31.802102 198.98069,32.58185 196.9497,32.581841 C 195.76504,31.155172 195.17272,29.958342 195.17272,28.991345 C 195.17272,28.38704 195.36014,27.776449 195.73498,27.159573 C 196.16995,27.038946 196.59902,26.978625 197.02219,26.97861 C 198.71488,26.978625 200.12938,28.066619 201.26571,30.242595 L 201.26571,30.242595 z M 199.5247,33.905586 C 199.56084,34.630925 199.57892,35.132677 199.57893,35.41085 C 199.57892,36.051699 199.52461,37.015823 199.41595,38.303225 C 199.3073,39.590632 199.25297,40.554756 199.25297,41.195598 C 199.25297,41.401097 199.11692,41.576341 198.84484,41.721333 C 198.57274,41.866326 198.32785,41.938821 198.11019,41.938821 C 198.11019,41.938821 198.01353,41.926831 197.82021,41.902851 C 196.90155,40.899343 196.44222,39.7086 196.44222,38.330617 C 196.44222,37.604922 196.55696,36.722241 196.78645,35.682572 C 197.17346,33.965915 197.36696,33.089507 197.36696,33.053341 C 198.24947,33.053351 198.96871,33.337432 199.5247,33.905586 L 199.5247,33.905586 z M 206.37253,39.382088 C 206.63853,39.38209 206.77154,39.261263 206.77154,39.019608 C 206.77154,38.463254 206.33029,37.913168 205.44779,37.369353 C 204.63797,36.910031 203.82188,36.45052 202.99953,35.990819 C 202.11703,35.410856 201.67578,34.80045 201.67578,34.1596 C 201.67578,32.914446 202.25002,31.808189 203.39854,30.840827 C 204.48652,29.91001 205.66528,29.444597 206.93479,29.444585 C 207.85344,29.444597 208.71177,30.061275 209.50979,31.294619 C 210.24728,32.406605 210.61604,33.446269 210.61605,34.413613 C 210.61604,34.727954 210.54355,35.036201 210.39856,35.338353 C 209.97538,35.567839 209.65497,35.682578 209.4373,35.682572 C 209.43728,35.682578 209.31037,35.616169 209.05656,35.483346 C 208.54888,34.661361 207.74497,34.250366 206.64481,34.250359 C 205.82245,34.250366 205.35094,34.534447 205.2303,35.102604 C 205.47195,35.670772 205.94936,36.07568 206.66252,36.317329 C 207.54538,36.619492 208.08956,36.867419 208.29507,37.061105 C 208.8267,37.556592 209.09251,38.457165 209.09252,39.762831 C 209.09251,40.476357 208.78426,41.01445 208.16778,41.377115 C 207.66012,41.6671 207.01946,41.812092 206.2458,41.812092 C 205.19396,41.812092 204.22071,41.612681 203.32604,41.21386 C 202.3347,40.79069 201.56104,40.1801 201.00505,39.382088 L 201.00505,38.947111 C 200.99289,37.423774 201.35555,36.662104 202.09305,36.6621 C 202.60071,36.662104 203.10837,36.897855 203.61603,37.369353 C 204.03919,37.804333 204.45627,38.239494 204.86727,38.674835 C 205.3753,39.14634 205.87705,39.38209 206.37253,39.382088 L 206.37253,39.382088 z M 212.68302,33.23486 C 212.40521,33.524852 212.24804,33.953925 212.21151,34.52208 C 212.21151,34.461582 212.21151,34.939171 212.21151,35.954847 C 212.21151,36.547366 212.15728,36.982526 212.04882,37.260331 C 211.87948,37.719662 211.54687,37.949325 211.05103,37.949322 C 210.83336,37.949325 210.58562,37.907081 210.3078,37.822591 C 210.1023,36.879593 209.99956,35.83993 209.99956,34.703597 C 209.99956,33.252945 210.05988,32.388527 210.18052,32.110339 C 210.22922,31.977532 210.35631,31.853661 210.56182,31.738727 C 210.76732,31.623813 210.94864,31.566351 211.10581,31.566342 C 211.75846,31.566351 212.2842,32.122524 212.68302,33.23486 L 212.68302,33.23486 z M 212.08478,39.672072 C 212.10913,39.780911 212.12131,39.889748 212.12131,39.998582 C 212.12131,40.13177 212.07593,40.31919 211.98517,40.560842 C 211.89441,40.802497 211.84903,40.989916 211.84904,41.123101 C 211.84903,41.219764 211.86121,41.322513 211.88557,41.431349 C 211.59521,41.697352 211.33529,41.830354 211.10581,41.830354 C 211.09364,41.830354 210.89405,41.812092 210.50702,41.775567 C 210.16872,41.521738 209.99956,41.189327 209.99956,40.77833 C 209.99956,40.572833 210.05397,40.261543 210.16281,39.844458 C 210.27164,39.427378 210.31998,39.104097 210.3078,38.874615 C 210.39229,38.850268 210.47696,38.838093 210.56182,38.83809 C 210.79129,38.838093 211.05121,38.953017 211.34156,39.182862 C 211.70423,39.460673 211.95197,39.623743 212.08478,39.672072 L 212.08478,39.672072 z "
       id="text6107"
       sodipodi:nodetypes="cssssssssssssssssssssssccccssscssssscsscssscsssssssccccccsssccsscssssssscccsccssscccsssscsssscsscssccccccsssccsscssssssscccsccsssccccscscccssssccssccccsscscscscccsssssccccccscscccssssccssccccsccscscscscscssssscccscccccsssscsssscccssscscsscsscc" />
    <path
       style="fill:none;fill-opacity:1;stroke:#000000;stroke-width:0.49999997;stroke-linecap:square;stroke-linejoin:round;stroke-miterlimit:4;stroke-dashoffset:0;stroke-opacity:1"
       d="M 36.124337,98.159536 L 49.382588,98.159536 L 49.382588,111.76323"
       id="rect7083"
       sodipodi:nodetypes="ccc" />
  </g>
</svg>
