<?xml version="1.0" encoding="UTF-8" standalone="no"?>
<svg
   xmlns:dc="http://purl.org/dc/elements/1.1/"
   xmlns:cc="http://creativecommons.org/ns#"
   xmlns:rdf="http://www.w3.org/1999/02/22-rdf-syntax-ns#"
   xmlns:svg="http://www.w3.org/2000/svg"
   xmlns="http://www.w3.org/2000/svg"
   xmlns:sodipodi="http://sodipodi.sourceforge.net/DTD/sodipodi-0.dtd"
   xmlns:inkscape="http://www.inkscape.org/namespaces/inkscape"
   width="658.47455"
   height="658.47455"
   viewBox="0 0 658.47455 658.47455"
   id="svg2"
   version="1.1"
   inkscape:version="0.48.4 r9939"
   sodipodi:docname="No_CTM.svg">
  <metadata
     id="metadata22">
    <rdf:RDF>
      <cc:Work
         rdf:about="">
        <dc:format>image/svg+xml</dc:format>
        <dc:type
           rdf:resource="http://purl.org/dc/dcmitype/StillImage" />
      </cc:Work>
    </rdf:RDF>
  </metadata>
  <defs
     id="defs20">
    <inkscape:path-effect
       effect="skeletal"
       id="path-effect3810"
       is_visible="true"
       pattern="m 25.198262,25.423727 1,0"
       copytype="single_stretched"
       prop_scale="1"
       scale_y_rel="false"
       spacing="0"
       normal_offset="0"
       tang_offset="0"
       prop_units="false"
       vertical_pattern="false"
       fuse_tolerance="0" />
  </defs>
  <sodipodi:namedview
     pagecolor="#ffffff"
     bordercolor="#666666"
     borderopacity="1"
     objecttolerance="10"
     gridtolerance="10"
     guidetolerance="10"
     inkscape:pageopacity="0"
     inkscape:pageshadow="2"
     inkscape:window-width="1366"
     inkscape:window-height="706"
     id="namedview18"
     showgrid="false"
     fit-margin-top="0"
     fit-margin-left="0"
     fit-margin-right="0"
     fit-margin-bottom="0"
     inkscape:zoom="0.39333333"
     inkscape:cx="416.63214"
     inkscape:cy="333.05082"
     inkscape:window-x="-8"
     inkscape:window-y="-8"
     inkscape:window-maximized="1"
     inkscape:current-layer="svg2" />
  <title
     id="title4">Yin-Yang</title>
  <rect
     style="fill:#e7f2fd;fill-opacity:1;fill-rule:nonzero;stroke:none"
     id="rect3792"
     width="658.47455"
     height="658.47455"
     x="8.3007819e-007"
     y="8.3007808e-007" />
  <circle
     d="M 597,300 C 597,464.02857 464.02857,597 300,597 135.97143,597 3,464.02857 3,300 3,135.97143 135.97143,3 300,3 464.02857,3 597,135.97143 597,300 z"
     style="fill:#1a1a1a;stroke:#000000;stroke-width:10;stroke-miterlimit:4;stroke-dasharray:none"
     sodipodi:ry="297"
     sodipodi:rx="297"
     sodipodi:cy="300"
     sodipodi:cx="300"
     cx="300"
     cy="300"
     r="297"
     id="circle6"
     transform="matrix(-1,0,0,-1,630.76781,629.23728)" />
  <path
     style="fill:#ffffff;stroke:#000000;stroke-width:10;stroke-miterlimit:4;stroke-dasharray:none"
     inkscape:connector-curvature="0"
     d="m 330.76781,626.23728 a 148.5,148.5 0 1 1 0,-297 148.5,148.5 0 0 0 0,-297.000008 297,297 0 1 0 0,594.000008 z"
     id="path8" />
  <circle
     d="M 597,300 C 597,464.02857 464.02857,597 300,597 135.97143,597 3,464.02857 3,300 3,135.97143 135.97143,3 300,3 464.02857,3 597,135.97143 597,300 z"
     style="fill:none;stroke:#000000;stroke-width:2.97600007"
     sodipodi:ry="297"
     sodipodi:rx="297"
     sodipodi:cy="300"
     sodipodi:cx="300"
     cx="300"
     cy="300"
     r="297"
     id="circle10"
     transform="matrix(-1,0,0,-1,630.76781,629.23728)" />
  <circle
     id="circle14"
     r="16.3258"
     cy="448.5"
     cx="300"
     sodipodi:cx="300"
     sodipodi:cy="448.5"
     sodipodi:rx="16.3258"
     sodipodi:ry="16.3258"
     style="fill:#1a1a1a;stroke:#000000;stroke-width:2.11521292"
     d="m 316.3258,448.5 c 0,9.01649 -7.30931,16.3258 -16.3258,16.3258 -9.01649,0 -16.3258,-7.30931 -16.3258,-16.3258 0,-9.01649 7.30931,-16.3258 16.3258,-16.3258 9.01649,0 16.3258,7.30931 16.3258,16.3258 z"
     transform="matrix(-1.4381531,0,0,-1.4381531,760.68321,818.59575)" />
  <circle
     id="circle16"
     r="16.3258"
     cy="151.5"
     cx="300"
     sodipodi:cx="300"
     sodipodi:cy="151.5"
     sodipodi:rx="16.3258"
     sodipodi:ry="16.3258"
     style="fill:#e6e6e6;stroke:#000000;stroke-width:2.11521292"
     d="m 316.3258,151.5 c 0,9.01649 -7.30931,16.3258 -16.3258,16.3258 -9.01649,0 -16.3258,-7.30931 -16.3258,-16.3258 0,-9.01649 7.30931,-16.3258 16.3258,-16.3258 9.01649,0 16.3258,7.30931 16.3258,16.3258 z"
     transform="matrix(-1.4381531,0,0,-1.4381531,760.68321,688.46428)" />
  <path
     style="fill:none;stroke:#ff0000;stroke-width:60;stroke-linecap:round;stroke-miterlimit:4;stroke-opacity:1;stroke-dasharray:none"
     d="M 55.706737,58.474574 597.23216,597.45763"
     id="path3808"
     inkscape:path-effect="#path-effect3810"
     inkscape:original-d="M 55.706737,58.474574 597.23216,597.45763"
     inkscape:connector-curvature="0"
     sodipodi:nodetypes="cc" />
</svg>
