<?xml version="1.0" encoding="UTF-8" standalone="no"?>
<svg xmlns="http://www.w3.org/2000/svg" height="848.05" width="848.05" version="1.1" viewBox="0 0 848.04786 848.04786">
	<g fill="#3dbaff">
		<path d="m490.35 517.57h-135.1c-10 0-19.1-6-22.9-15.3s-1.7-19.9 5.4-27l95.2-95.2h-73.4c-13.7 0-24.8-11.1-24.8-24.8s11.1-24.8 24.8-24.8h133.2c10 0 19.1 6 22.9 15.3 3.9 9.3 1.7 19.9-5.4 27l-95.2 95.2h75.3c13.7 0 24.8 11.1 24.8 24.8s-11 24.8-24.8 24.8z"/>
		<path d="m274.53 517.57h-135.1c-10 0-19.1-6-22.9-15.3s-1.7-19.9 5.4-27l95.2-95.2h-73.4c-13.7 0-24.8-11.1-24.8-24.8s11.1-24.8 24.8-24.8h133.2c10 0 19.1 6 22.9 15.3 3.9 9.3 1.7 19.9-5.4 27l-95.2 95.2h75.3c13.7 0 24.8 11.1 24.8 24.8s-11 24.8-24.8 24.8z"/>
		<path d="m706.17 517.57h-135.1c-10 0-19.1-6-22.9-15.3s-1.7-19.9 5.4-27l95.2-95.2h-73.4c-13.7 0-24.8-11.1-24.8-24.8s11.1-24.8 24.8-24.8h133.2c10 0 19.1 6 22.9 15.3 3.9 9.3 1.7 19.9-5.4 27l-95.2 95.2h75.3c13.7 0 24.8 11.1 24.8 24.8s-11 24.8-24.8 24.8z"/>
		<path d="m490.35 287.65h-135.1c-10 0-19.1-6-22.9-15.3s-1.7-19.9 5.4-27l95.2-95.2h-73.4c-13.7 0-24.8-11.1-24.8-24.8s11.1-24.8 24.8-24.8h133.2c10 0 19.1 6 22.9 15.3 3.9 9.3 1.7 19.9-5.4 27l-95.2 95.2h75.3c13.7 0 24.8 11.1 24.8 24.8s-11 24.8-24.8 24.8z"/>
		<path d="m490.35 747.5h-135.1c-10 0-19.1-6-22.9-15.3s-1.7-19.9 5.4-27l95.2-95.2h-73.4c-13.7 0-24.8-11.1-24.8-24.8s11.1-24.8 24.8-24.8h133.2c10 0 19.1 6 22.9 15.3 3.9 9.3 1.7 19.9-5.4 27l-95.2 95.2h75.3c13.7 0 24.8 11.1 24.8 24.8s-11 24.8-24.8 24.8z"/>
	</g>
	<path style="color-rendering:auto;text-decoration-color:#000000;color:#000000;isolation:auto;mix-blend-mode:normal;shape-rendering:auto;solid-color:#000000;block-progression:tb;text-decoration-line:none;image-rendering:auto;white-space:normal;text-indent:0;text-transform:none;text-decoration-style:solid" d="m424.02 1c-233.33 0-423.02 189.69-423.02 423.02 0.0000059 233.33 189.69 423.02 423.02 423.02 233.33-0.00001 423.02-189.69 423.02-423.02 0.01-233.33-189.68-423.02-423.02-423.02zm0 50c206.31 0.000005 373.02 166.71 373.02 373.02-0.00001 206.31-166.71 373.02-373.02 373.02-206.31 0.01-373.02-166.71-373.02-373.02s166.71-373.02 373.02-373.02z" fill="#00d4b0"/>
</svg>